<svg width="352" height="301" fill="none" xmlns="http://www.w3.org/2000/svg"><path opacity=".15" d="M277.034 289.722H169.22a4.661 4.661 0 01-3.294-1.36 4.655 4.655 0 01-1.365-3.292 4.656 4.656 0 014.659-4.651h107.814a4.651 4.651 0 010 9.303zm-126.436.781h-24.039a3.104 3.104 0 000 6.208h24.039a3.104 3.104 0 000-6.208z" fill="#292929"/><path d="M296.5 242.291a51.718 51.718 0 01-5.268-24.237c.119-4.075.719-8.166.206-12.217-1.082-8.569-7.289-16-15.052-19.791-7.763-3.791-16.845-4.256-25.327-2.606-13.741 2.669-24.766 11.262-26.061 25.777-.742 8.323.861 16.718.126 25.042a33.386 33.386 0 01-1.097 6.041l-4.154.301-31.51 2.266c-6.926.505-13.915.671-18.82 5.962a37.72 37.72 0 00-9.658 20.407c-.79 5.734.087 12.233 4.43 16.047.355.31.727.6 1.114.869h105.436a30.952 30.952 0 0019.957-7.06c.339-.284.671-.569.995-.869 10.48-9.54 10.551-24.015 4.683-35.932z" fill="#fff" stroke="#18216D" stroke-miterlimit="10"/><path d="M237.816 233.58c-2.591-2.488-5.37-4.81-7.811-7.447-3.08-3.333-4.825-7.313-6.697-11.404-1.998-4.375-3.593-9.066-3.467-13.939a23.591 23.591 0 017.55-16.197c2.559-2.432 6.484-4.501 7.045-8.174.545-3.546-.308-7.565 1.824-10.716 3.017-4.478 11.404-.316 13.986 2.701 3.388 3.948 3.017 10.519 7.676 13.488 1.761 1.122 3.949 1.382 5.868 2.125a12.439 12.439 0 017.518 8.45c.9 3.561.869 7.368 3.601 10.132 2.875 2.906 5.528 5.394 7.068 9.358a36.184 36.184 0 011.935 9.532c.687 7.779-4.92 14.578-11.538 18.259a29.056 29.056 0 01-16.663 3.435c-4.802-.434-11.056-1.761-14.136-5.583a43.034 43.034 0 00-3.759-4.02z" fill="#18216D"/><path d="M229.207 207.937a28.104 28.104 0 01-21.733 18.346 25.132 25.132 0 012.369 6.318c6.76.086 13.828-1.801 18.638-6.547 4.809-4.747 6.72-12.715 3.293-18.543-.419-.734-2.298-.355-2.567.426z" fill="#fff" stroke="#18216D" stroke-miterlimit="10"/><path d="M225.567 204.012c1.137-3.08 3.159-6.08 4.628-8.892l2.527-4.888c.561-1.082 1.232-3.412 2.488-3.886 1.018-.379 2.227.498 3.158.837 1.359.49 2.764.861 4.131 1.343 2.708.971 5.409 2.227 7.392 4.375a11.248 11.248 0 013.222 8.324c-.135 1.769-.901 3.427-1.311 5.157a23.857 23.857 0 00-.419 6.191 181.72 181.72 0 001.477 19.104 6.445 6.445 0 01-.142 3.316c-1.09 2.591-7.961 1.927-10.409 2.149-3.909.347-8.41 1.279-12.098-.498a96.303 96.303 0 01-.703-12.17c0-3.388.955-6.807-1.185-9.721-1.872-2.535-4.051-4.794-3.467-8.182.158-.873.396-1.729.711-2.559z" fill="#005FEC"/><path d="M234.112 185.059c.09-1.051.09-2.108 0-3.159-.095-.861-.719-1.216-1.367-1.753-2.772-2.275-3.324-5.86-2.448-9.177.111-.352.182-.714.213-1.082a6.181 6.181 0 00-.071-1.026 5.433 5.433 0 01.956-3.688c1.69-2.283 5.733-2.425 7.984-.956 3.064 1.982 3.483 6.215 3.593 9.864.087 2.843.166 5.678.253 8.521.087 3.048.332 6.886-2.851 8.497a5.101 5.101 0 01-3.593.356 3.824 3.824 0 01-1.872-1.09c-1.2-1.382-.884-3.617-.797-5.307z" fill="#fff" stroke="#18216D" stroke-miterlimit="10"/><path d="M241.693 178.607a10.138 10.138 0 01-6.199 2.788c2.09.603 4.295.695 6.428.268a22.007 22.007 0 01-.229-3.056z" fill="#18216D"/><path d="M157.935 281.248l4.478-4.612a38.374 38.374 0 004.533-5.268 19.291 19.291 0 002.479-5.37c.482-1.69.703-3.593-.142-5.125a5.188 5.188 0 00-5.062-2.369 9.902 9.902 0 00-5.244 2.527c-3.332 2.811-5.402 6.397-7.36 10.203a363.02 363.02 0 01-6.942 12.849c-.466.79-1.579 2.369-1.421 3.333.158.963 1.579 1.318 2.653 1.413 2.472.229 4.841-.197 6.61-2.014 1.769-1.816 3.609-3.672 5.418-5.567z" fill="#005FEC"/><path d="M145.37 282.456a1.785 1.785 0 00-1.374-.245c-.437.128-.845.34-1.2.624a35.865 35.865 0 01-11.293 5.173c-2.006.521-4.21.963-5.529 2.543-1.042 1.232-.071 2.369 1.146 2.93 1.909.723 3.98.903 5.986.521 4.825-.75 9.65.537 14.483 0 3.633-.403 4.652-3.096 5.631-6.255.15-.481.332-.963.466-1.445-1.161-.458-2.685-.268-3.949-.734a7.911 7.911 0 01-2.922-1.785 8.914 8.914 0 00-1.445-1.327z" fill="#18216D"/><path d="M253.587 235.886c-.458-1.895-1.138-3.846-2.551-5.07-1.414-1.224-3.736-1.414-4.904.079-.403.505-.632 1.145-1.035 1.65-1.208 1.501-4.241.49-5.812.45-2.449-.063-4.897.079-7.337.245-5.955.395-11.901.916-17.848 1.438l-16.655 1.461c-2.827.244-5.663.608-8.498.789-2.448.135-4.462-.434-6.87.695a24.928 24.928 0 00-5.426 3.894c-2.535 2.171-5.101 4.304-7.613 6.507a130.665 130.665 0 00-4.233 3.854c-3.861 3.696-7.415 7.7-10.969 11.688a5633.938 5633.938 0 01-8.971 10.1 163.395 163.395 0 0115.936 14.555c.909-.79 1.785-1.8 2.37-2.369a90.242 90.242 0 003.854-3.664 5.681 5.681 0 001.524-2.188c.197-.679.134-1.414.292-2.109.49-2.266 2.93-3.403 4.691-4.904 2.535-2.164 2.922-5.196 4.549-7.897 1.445-2.417 4.391-3.475 6.373-5.473 1.848-1.871 2.764-4.47 4.343-6.578 1.288-1.722 4.454-4.115 6.626-2.519 1.73 1.263 1.477 4.153 3.562 5.196 1.429.711 3.159.671 4.683.94 5.244.932 10.551 1.453 15.842 1.974l9.042.884c5.023.49 10.18.972 15.045-.473a15.59 15.59 0 009.539-7.621c.463-.933.808-1.92 1.027-2.938.956-4.036.324-8.821-.576-12.596z" fill="#fff" stroke="#18216D" stroke-miterlimit="10"/><path d="M258.277 200.222c5.9 3.285 6.824 10.527 7.013 16.955.095 3.309-.095 6.697-1.335 9.761-3.332 8.213-13.425 10.267-21.322 10.006a89.636 89.636 0 01-29.686-6.152 17.61 17.61 0 01.584-5.125 74.087 74.087 0 0018.425 2.448 39.295 39.295 0 0013.291-1.832c2.709-.948 5.378-2.496 6.562-4.904 2.125-4.32-1.421-8.956-1.927-13.26a9.648 9.648 0 01.198-4.509c.25-.611.568-1.191.948-1.73a6.62 6.62 0 011.95-2.148 4.636 4.636 0 014.13-.071c.401.163.791.35 1.169.561z" fill="#fff" stroke="#18216D" stroke-miterlimit="10"/><path d="M181.997 236.21h41.564c.277-.005.548-.078.79-.214 1.145-.655.576-2.116-.79-2.116h-41.564a1.63 1.63 0 00-.789.213c-1.169.648-.608 2.117.789 2.117z" fill="#18216D"/><path d="M181.714 236.312h39.439a.606.606 0 00.497-.947l-13.425-19.744a.595.595 0 00-.498-.26h-39.463a.599.599 0 00-.497.94l13.425 19.743a.615.615 0 00.522.268zm52.738-68.666a5.912 5.912 0 013.498.094 6.723 6.723 0 013.159 2.441c.956 1.358 1.066 2.519 1.216 4.154a4269.6 4269.6 0 001.011 11.198 4.3 4.3 0 00.419 1.761 3.421 3.421 0 001.95 1.35 5.192 5.192 0 004.162-.244 5.057 5.057 0 002.203-3.546 14.799 14.799 0 00-.094-4.296c-.529-4.51-.79-8.64-2.654-12.857-1.492-3.388-5.212-5.307-8.861-5.915a19.54 19.54 0 00-9.69.868 6.134 6.134 0 00-2.708 1.643c-1.114 1.311-.995 2.819.655 3.285a8.97 8.97 0 003.483.506 20.768 20.768 0 002.251-.442z" fill="#18216D"/><path d="M240.342 172.581a2.328 2.328 0 012.269-1.323c.311.022.613.107.89.249 1.256.79 1.035 2.575 0 3.451a1.93 1.93 0 01-1.728.469 1.93 1.93 0 01-1.367-1.156 1.726 1.726 0 01-.064-.742.857.857 0 010-.948z" fill="#fff"/><path d="M252.505 212.178l1.445-.529a.324.324 0 01.213-.229c3.625-1.342 7.171-2.882 10.772-4.28a47.69 47.69 0 00-3.42-7.321 19.256 19.256 0 00-4.075-5.568 31.272 31.272 0 00-6.712-4.817c-.616-.316-7.605-3.222-7.653-3.096a32.952 32.952 0 00-1.153 5.639 35.376 35.376 0 01-.355 3.704 8.308 8.308 0 00.584 5.97c1.422 2.551 2.788 5.173 4.336 7.637l2.543 4.043a19.693 19.693 0 012.946-1.011l.529-.142z" fill="#005FEC"/><path d="M232.256 177.075a2.19 2.19 0 002.883 0c.173-.166.134-.442.158-.679.023-.237-.151-.498-.387-.482a.481.481 0 00-.206.063c-.726.308-1.729.774-2.448 1.098z" fill="#18216D"/><path d="M194.767 223.661a2.129 2.129 0 00-2.37.069 2.124 2.124 0 00-.843 2.217 2.142 2.142 0 00.947 1.331" stroke="#C9CDD1" stroke-miterlimit="10"/><path d="M209.535 267.562c-1.058-3.009-1.721-6.207-2.653-9.272a13.882 13.882 0 00-1.753-3.948 5.718 5.718 0 00-3.475-2.456c-2.448-.466-4.888 1.279-6.01 3.506-2.922 5.773-.426 12.178 3.356 16.813 1.288 1.58 2.678 3.057 4.004 4.597 1.327 1.54 2.291 3.601 3.649 5.062 2.101 2.251 5.741.79 7.463-1.248 2.053-2.432-.592-5.725-1.998-7.771a22.452 22.452 0 01-2.583-5.283z" fill="#005FEC"/><path d="M213.413 276.146l-.387.269a54.68 54.68 0 01-6.381 3.719 3.665 3.665 0 00-1.358 1.082c-.569.853.047 1.469.165 2.314a18.17 18.17 0 01-.671 7.747c-.79 2.37-3.727 5.694-2.985 8.34.482 1.745 2.938 1.485 4.304 1.106a8.345 8.345 0 004.699-3.823c1.058-1.745 1.824-3.664 2.756-5.48a31.713 31.713 0 013.025-4.786 11.291 11.291 0 001.484-2.227 4.968 4.968 0 00-.916-5.149c-.647-.743-1.121-1.627-1.745-2.369-.845-1.059-1.122-1.304-1.99-.743z" fill="#18216D"/><path d="M185.015 255.116c.331.868.497 1.777.789 2.661a21.558 21.558 0 002.156 4.391 4317.62 4317.62 0 006.081 10.369l3.041 5.181c.134.229.363.71.639 1.279a254.217 254.217 0 0016.119-10.266c-1.185-1.935-2.528-3.799-2.804-6.026-.142-1.121 0-2.274-.126-3.404-.332-2.724-2.283-4.912-3.909-7.107-2.907-3.949-4.976-8.458-7.448-12.715a57.192 57.192 0 00-.9-1.5 32.21 32.21 0 00-6.215-7.605 25.34 25.34 0 00-4.012-2.709c-1.192-.687-2.069-1.674-3.356-2.204-5.591-2.298-9.998 2.22-10.172 7.898-.118 4.019 1.682 7.842 3.672 11.332a86.236 86.236 0 004.423 7.013 16.436 16.436 0 012.022 3.412z" fill="#fff" stroke="#18216D" stroke-miterlimit="10"/><path d="M246.392 205.371a39.813 39.813 0 01-1.437 13.883c.244-.845 2.606-2.322 3.285-2.993.679-.671 2.622-2.164 2.74-3.301.119-1.137-1.271-2.693-1.8-3.554a45.554 45.554 0 00-2.788-4.035z" fill="#18216D"/><path d="M243.249 182.595c.087 3.048.332 6.886-2.851 8.497a5.101 5.101 0 01-3.593.356" fill="#fff"/><path d="M243.249 182.595c.087 3.048.332 6.886-2.851 8.497a5.101 5.101 0 01-3.593.356" stroke="#18216D" stroke-miterlimit="10"/><path d="M239.474 260.059c6.965-1.129 13.67 3.096 20.707 3.641l-20.707-3.641z" fill="#fff"/><path d="M239.474 260.059c6.965-1.129 13.67 3.096 20.707 3.641" stroke="#18216D" stroke-miterlimit="10"/><path d="M256.051 257.872a25.843 25.843 0 0011.182.537l-11.182-.537z" fill="#fff"/><path d="M256.051 257.872a25.843 25.843 0 0011.182.537m2.819-24.679a23.728 23.728 0 01-4.738 17.279" stroke="#18216D" stroke-miterlimit="10"/><path d="M167.001 281.722c-.253-1.761-.458-6.318-2.606-6.982-4.991-1.54-1.848 10.559-1.406 12.123a1.108 1.108 0 00.521.687 3.468 3.468 0 001.99 1.958 1.182 1.182 0 001.153-.308 2.35 2.35 0 00.348-.434 1.016 1.016 0 00.395-.877.222.222 0 000-.063c.473-1.871-.174-4.572-.395-6.104zm-11.294-11.12c-1.682.095-3.435 2.085-4.541 3.159a30.87 30.87 0 00-4.375 5.433 1.073 1.073 0 00-.155.887 1.072 1.072 0 00.574.693c.411 1.256 1.911 1.453 3.159 1.153a9.073 9.073 0 004.794-3.301c1.097-1.382 2.463-3.214 2.732-4.999.213-1.422-.545-3.12-2.188-3.025zm14.35-9.176c-2.906.189-8.324.221-9.99 3.159a2.281 2.281 0 00-.264 1.744 2.28 2.28 0 001.054 1.414c1.579 1.106 3.624.64 5.33.166.251-.062.472-.21.624-.418a13.766 13.766 0 003.783-1.453c1.129-.632 2.606-1.58 2.44-3.025-.166-1.445-1.761-1.666-2.977-1.587zm1.769-10.069c-.932-2.535-3.017-4.62-5.165-6.152a1.016 1.016 0 00-1.579.426 2.379 2.379 0 00-1.312.024 2.38 2.38 0 00-1.097.718c-1.532 1.675-.727 4.739.332 6.452 1.16 1.864 4.193 3.949 6.475 3.633 2.48-.347 3.088-3.088 2.346-5.101zm-20.028 9.942a1.107 1.107 0 00-.719 0 1.69 1.69 0 00-2.045 1.714c0 1.461 1.074 2.993 2.124 3.949a7.583 7.583 0 004.376 1.895 1.196 1.196 0 001.184-1.185 6.786 6.786 0 00-4.92-6.373zm33.05-2.408c-.489-.79-.726-1.667-1.524-2.156a2.447 2.447 0 00-2.843.276c-1.729 1.279-2.701 3.775-2.993 5.836-.237 1.69-.316 4.502 1.793 5.015 1.54.371 2.503-.75 3.159-2.03a8.268 8.268 0 001.271-2.25c.406-1.01.656-2.075.742-3.159.134-.068.252-.163.346-.279a1.055 1.055 0 00.049-1.253zm42.543-5.623c-1.579-1.896-4.146.387-5.449 1.461a22.582 22.582 0 00-2.938 2.953c-.576.703-1.643 1.69-1.516 2.685 0 .095.039.19.063.285-.065.232-.11.47-.134.71a1.202 1.202 0 001.184 1.185c2.425 0 4.739-2.116 6.381-3.712 1.217-1.184 3.941-3.704 2.409-5.567zm-9.524-9.824c-1.532-1.256-3.736-2.314-5.765-2.014-2.369.347-3.009 2.329-2.085 4.367.187.403.409.789.663 1.153.022.049.041.099.056.15a7.003 7.003 0 004.738 4.138c1.579.403 5.378.403 5.733-1.8.356-2.204-1.761-4.77-3.34-5.994zm21.599-2.701c-.924-2.291-4.051-2.638-6.113-2.417-1.792.198-5.188.466-6.483 2.101-.964.789-1.69 1.958-.893 3.119 1.003 1.453 4.012 1.516 5.568 1.58a9.296 9.296 0 004.636-.98c1.713-.418 4.075-1.453 3.285-3.403zm.924 10.203c-1.643-1.832-4.849-2.148-6.033.363-.703 1.501-.324 3.159.41 4.739a6.47 6.47 0 001.982 3.34l.34.506a1.243 1.243 0 002.006.063 4.145 4.145 0 003.293-2.085c.956-1.967-.648-5.426-1.998-6.926zm16.505-5.662a.919.919 0 00-.467-1.006.92.92 0 00-.378-.108c-2.874-.395-6.01-.861-8.75.371-1.406.632-3.159 2.322-2.306 4.052 1.082 2.077 5.133 2.282 7.108 2.369 2.108.063 4.975-.466 6.08-2.519.814-1.493.087-2.512-1.287-3.159zm-47.059 7.849c-.269-1.295-1.374-1.713-2.567-1.705a1.106 1.106 0 00-1.327-.624 11.304 11.304 0 00-6.317 4.067c-1.09 1.414-2.583 3.806-.664 5.212 1.919 1.406 5.015-.576 6.642-1.745 1.398-.995 4.651-3.222 4.233-5.205zm-8.427 14.034c-4.13.497-7.415 5.339-9.682 8.355a.92.92 0 000 1.185 2.12 2.12 0 00.048 1.658c1.666 3.53 7.676-2.511 8.987-3.948 1.145-1.232 3.009-3.159 3.269-4.873.261-1.714-1.121-2.559-2.622-2.377zm-8.134-14.823a1.221 1.221 0 00-.704-.77 1.218 1.218 0 00-1.041.059c-3.878 2.424-4.265 8.6-4.028 12.691a1.153 1.153 0 00.829 1.074 1.982 1.982 0 002.061 1.461c2.37-.063 3.286-3.751 3.657-5.528a15.6 15.6 0 00-.774-8.987zm9.848-14.665a1.01 1.01 0 00-1.09-.79h-.142a11.63 11.63 0 00-6.879-.75c-2.708 0-6.025 1.066-5.923 4.075.127 3.743 7.621 2.369 9.817 1.942 1.832-.3 6.855-2.345 4.217-4.477zm-17.824 5.125c-.269.095-.537.213-.79.316a5.138 5.138 0 00-1.658.789 16.938 16.938 0 00-2.591 1.651c-1.318 1.035-3.237 2.575-3.782 4.233-.482 1.429.679 2.551 2.069 2.551 1.579 0 3.245-1.051 4.43-1.975.971-.789 4.13-4.122 3.743-6.041.158-.845-.442-1.88-1.421-1.524zm-.261-13.007c-.474-2.259-2.156-1.706-3.712-1.421a5.031 5.031 0 01-.576 0c-1.579.11-2.977 2.369-3.672 3.664-.885 1.579-1.58 3.688-.624 5.41 1.974 3.593 6.136-.996 7.257-2.915.782-1.303 1.659-3.159 1.327-4.738z" fill="#18216D"/><path d="M317.989 46.628h-145.31v87.659h145.31v-87.66z" fill="#fff" stroke="#18216D" stroke-miterlimit="10"/><path d="M183.609 130.323c-.727-4.659.158-9.729 3.159-13.37 1.413-1.706 3.269-3.104 4.161-5.125.408-1.036.653-2.128.727-3.238.6-6.105-.434-12.77 2.843-17.959 1.319-2.093 3.246-3.735 4.738-5.725 2.693-3.672 3.688-8.324 6.097-12.178 2.409-3.854 7.392-6.942 11.412-4.81 4.019 2.133 4.304 7.621 3.08 11.894-1.224 4.272-3.538 8.426-3.136 12.849.364 3.862 2.788 7.297 3.222 11.159.482 4.256-1.5 8.426-1.579 12.706-.142 5.434 2.709 10.693 2.069 16.087-.64 5.394-4.628 9.745-9.429 12.044-5.039 2.416-16.166 4.848-21.086.9-3.499-2.78-5.654-11.199-6.278-15.234zm71.075 4.738c-.726-4.659.158-9.729 3.159-13.37 2.48-3.001 4.62-4.059 4.501-8.039-.142-5.039-1.832-9.54-1.042-14.72 1.05-6.887 5.023-13.015 6.452-19.83 1.145-5.529.79-11.713 4.304-16.08a6.792 6.792 0 014.249-2.661c4.241-.576 7.234 4.351 7.439 8.632.205 4.28-1.09 8.687.126 12.778 1.303 4.406 5.307 7.7 6.271 12.193.561 2.645 0 5.417.363 8.095.308 2.29 1.287 4.422 2.069 6.594 4.486 12.454 3.041 34.242-10.535 40.742-5.038 2.416-16.165 4.849-21.085.9-3.491-2.78-5.647-11.198-6.271-15.234z" fill="#005FEC"/><path d="M274.04 142.2v-.047a34.608 34.608 0 013.507-14.61c3.688-7.526 10.156-13.86 11.696-22.112.742-3.949.244-8.071.402-12.115.158-4.043 1.13-8.355 4.115-11.056 1.39-1.263 3.522-2.109 5.141-1.145a4.92 4.92 0 011.856 2.55c1.579 4.1 1.508 8.64 2.093 13.008.924 6.894 6.088 10.385 6.878 17.058.893 7.605-.213 15.289-2.432 22.578-2.417 7.945-4.36 16.237-12.636 20.209-7.044 3.38-13.962 4.423-18.243-3.348a22.054 22.054 0 01-2.377-10.97z" fill="#005FEC"/><path d="M206.764 132.589c-.111-1.847.916-3.553 1.982-5.054 4.035-5.678 9.137-10.535 12.833-16.45 2.045-3.269 4.367-6.373 5.173-10.266a32.12 32.12 0 00.426-5.71 40.207 40.207 0 011.579-11.356c1.769-5.528 5.631-10.472 10.859-12.983 8.687-4.162 22.113-3.799 26.851 6.167 1.856 3.894 2.219 8.403 2.243 12.636 0 5.133-.561 10.306.118 15.4.79 5.725 4.028 9.247 8.213 12.928 2.883 2.535 5.086 4.943 5.584 8.813.474 3.688-1.24 7.352-3.688 10.022-3.467 3.782-8.308 6.088-13.283 7.344-4.976 1.256-10.141 1.54-15.258 1.848-5.852.355-11.735.742-17.556.087-5.82-.656-11.648-2.44-16.284-6.018-1.714-1.319-3.317-2.922-5.307-3.822-1.99-.9-4.32-.711-4.485-3.586z" fill="#18216D"/><path d="M248.927 139.176c-2.38.312-4.778.454-7.178.426-1.406 0-3.523.087-4.668-.861-1.145-.947-1.2-2.55-1.232-3.798-.118-4.47.79-8.885 1.248-13.331.348-3.577.379-7.305-.719-10.764-1.003-3.159-2.519-5.931-3.016-9.311-.119-.789 0-2.669-.529-3.324-.53-.656-1.43-.514-1.943-1.177a3.691 3.691 0 01-.664-2.432 5.347 5.347 0 013.159-4.502.142.142 0 00.103-.158c-.529-5.528 1.809-11.364 6.713-14.057 5.038-2.756 10.835-4.81 16.15-1.263a13.17 13.17 0 015.228 7.478c.268.924 1.137 9.54 1.192 9.959a2.22 2.22 0 012.196 1.018c.446.736.681 1.58.679 2.44a4.245 4.245 0 01-2.551 4.178c-1.974.79-1.437 2.851-1.927 4.739a17.975 17.975 0 01-3.159 6.491c-.347.4-.632.85-.845 1.335a4.56 4.56 0 00-.142 1.793c.342 6.36.49 12.725.442 19.095 0 1.919-.292 3.499-2.029 4.423-2.03 1.05-4.281 1.295-6.508 1.603z" fill="#fff" stroke="#18216D" stroke-miterlimit="10"/><path d="M239.703 75.113a13.428 13.428 0 00-6.318 5.18 14.313 14.313 0 00-1.777 8.324c.087.948.735 2.038 1.674 1.92.743-.095 1.161-.877 1.58-1.509 2.677-4.067 9.082-4.936 13.567-5.236 1.138-.07 2.275-.095 3.42-.07 3.072.062 6.073.892 9.105 1.018 2.37.103 4.999-1.58 6.508-3.293a10.163 10.163 0 002.527-6.792 5.346 5.346 0 00-.877-3.104c-1.026-1.405-3.009-1.95-4.667-1.855a18.952 18.952 0 00-4.644.837 24.044 24.044 0 01-4.619 1.382c-1.635.197-3.278.592-4.928.845-3.562.513-7.218.892-10.551 2.353zm9.279 33.658c-1.382.419-2.472.79-3.901.237-.387-.158-.663.498-.284.671 1.382.648 3.34.79 4.541-.3a.367.367 0 00.059-.442.364.364 0 00-.415-.166zm-.252-9.003h-.34l-2.535.395c-2.985.466-.908 4.288 1.461 3.712a2.993 2.993 0 001.224-.561c.431-.42.761-.933.964-1.5.164-.324.268-.674.308-1.035a1.008 1.008 0 00-.435-.94 1.08 1.08 0 00-.647-.07zm-1.69-2.638c-.593 0 0-3.49.047-3.948a12.11 12.11 0 00-.087-3.159c0-.166-.26-.118-.268 0-.103 2.18-.593 4.304-.719 6.46-.047.79.221 1.58 1.121 1.303a.354.354 0 00-.094-.655zm-6.737-4.24a.548.548 0 00-.521-.395h-.055a.625.625 0 00-.537.308v.04a.63.63 0 00-.064.71l.048.063c.332.458 1.216.372 1.177-.316 0-.138-.016-.276-.048-.41zm14.184-.727c-.53-.49-1.327.308-.79.79a.775.775 0 00.087.237.52.52 0 00.9 0 .861.861 0 00-.197-1.027zm-3.949 23.771a48.272 48.272 0 006.231 3.112 1.24 1.24 0 001.138-.09 1.239 1.239 0 00.576-.984 27.84 27.84 0 01.829-5.892c.269-.995 1.153-1.808 1.153-2.835a.795.795 0 00-.095-.411.737.737 0 00-.932-.221c-.313.165-.583.4-.789.687-2.188 2.606-4.533 3.602-7.755 4.36a1.237 1.237 0 00-.845 1.736c.106.224.276.412.489.538z" fill="#18216D"/><path d="M317.989 46.628h-145.31v87.659h145.31v-87.66z" stroke="#18216D" stroke-miterlimit="10"/><path d="M177.062 41.313h136.56a4.739 4.739 0 014.738 4.738v5.939h-146.1v-5.94a4.74 4.74 0 014.802-4.738z" fill="#18216D"/><path d="M178.997 50.126a2.923 2.923 0 10-.001-5.845 2.923 2.923 0 00.001 5.845zm13.686-3.056a2.92 2.92 0 01-1.682 2.765 2.917 2.917 0 01-3.199-.494 2.912 2.912 0 01-.769-3.144 2.916 2.916 0 012.609-1.915 2.92 2.92 0 013.041 2.788z" fill="#fff"/><path d="M192.682 47.07a2.912 2.912 0 01-4.88 2.271 2.913 2.913 0 114.88-2.271z" fill="#fff"/><path d="M186.373 43.65l6.791 7.108m-6.949-.158l7.107-6.8" stroke="#18216D" stroke-miterlimit="10"/><path d="M149.777 16.223H43.163v87.66h106.614v-87.66z" fill="#fff" stroke="#18216D" stroke-miterlimit="10"/><path d="M54.607 48.152a10.503 10.503 0 012.59-8.735c.79-.79 1.58-1.319 2.077-2.369a6.55 6.55 0 00.371-1.516 11.26 11.26 0 015.386-7.4c2.97-1.88 5.93-1.919 9.327-2.488 1.003-.165 1.966-.481 2.961-.647a10.562 10.562 0 012.867-.055c2.786.385 5.4 1.57 7.526 3.411a14.215 14.215 0 013.364 4.304c.79 1.28 1.098 2.74 1.825 4.028.837 1.469 1.832 1.421 3.245 2.1a9.033 9.033 0 014.944 6.484c1.129 6.87-5.915 11.846-12.178 10.425-4.738-1.059-11.846-1.027-15.463 2.661-1.508 1.516-2.78 3.301-4.54 4.517-.182.119-.364.237-.553.348a11.286 11.286 0 01-10.748.292c-4.43-2.448-4.083-7.566-2.662-11.783.163-.38.254-.787.269-1.2a3.953 3.953 0 00-.26-1.035 8.918 8.918 0 01-.348-1.342z" fill="#005FEC"/><path d="M75.992 74.931c1.761 3.46 5.528 5.173 9.675 4.612h.094a7.897 7.897 0 006.484-9.358l-1.398-7.17a6.682 6.682 0 01-.126-2.875 10.65 10.65 0 011.192-2.37c3.16-5.725-.426-12.232-3.348-17.2A13.939 13.939 0 0077.2 33.636c-10.211-.418-15.242 8.853-13.26 17.935 1.137 5.165 4.241 8.869 8.197 12.154 3.957 3.285 4.178 6.286 3.854 11.206z" fill="#fff" stroke="#18216D" stroke-miterlimit="10"/><path d="M66.413 42.616a6.529 6.529 0 00-.094 2.369 10.165 10.165 0 01-.925 5.575 8.934 8.934 0 01-1.76 2.164 5.631 5.631 0 01-1.99 1.335 2.48 2.48 0 01-2.29-.284A2.646 2.646 0 0158.5 51.5c.099-.836.284-1.659.553-2.456.395-1.492.553-3.04.971-4.525a6.87 6.87 0 012.409-3.854 3.783 3.783 0 013.262-.576c.394.134 1.232.49 1.374.931.197.632-.458.964-.656 1.596z" fill="#005FEC"/><path d="M69.17 41.89a14.073 14.073 0 002.93-1.138 1.63 1.63 0 01.726-.245c.223.015.44.083.632.198a13.339 13.339 0 004.62 1.58c1.634.102 3.458-.664 4.011-2.204.08-.214.174-.482.403-.514a.57.57 0 01.426.198c1.856 1.58 3.752 4.288 6.571 3.024 1.5-.67 2.274-2.369 2.37-4.043.173-3.633-2.512-6.957-5.821-8.474-3.31-1.516-7.108-1.5-10.717-1.034a23.44 23.44 0 00-7.384 2.014c-2.503 1.232-3.42 3.159-4.785 5.528a4.145 4.145 0 00-.545 3.64c.79 1.722 3.056 2.085 4.92 1.817a13.11 13.11 0 001.642-.348z" fill="#005FEC"/><path d="M84.75 63.022a7.563 7.563 0 01-.908.372c-.387.134-2.077.165-2.235.394-.49.719 1.288.885 1.58.932.755.11 1.497.3 2.211.569.547.243 1.076.529 1.58.853l1.95 1.145a41.64 41.64 0 01-.79-6.626c0 .316-1.627 1.295-1.895 1.477-.476.329-.975.625-1.493.884zM71.586 48.847a.79.79 0 00-.79.22.465.465 0 00.103.72.536.536 0 00.379.197.662.662 0 00.695-.735.465.465 0 00-.387-.402zm12.904-1.919a.68.68 0 00-.38-.277.245.245 0 00-.402-.047c-.292.292-.355.371-.268.79a.394.394 0 00.284.292.671.671 0 00.79-.316.411.411 0 00-.024-.442zm-4.533 3.68c-.23-.869-.837-1.761-.948-2.638a.237.237 0 00-.474 0c.024.746.174 1.483.442 2.18.221.845.23 1.737.49 2.559.103.323.663.394.727 0a5.142 5.142 0 00-.237-2.101zm5.552-4.683a2.962 2.962 0 00-3.752.268.238.238 0 00.13.379.236.236 0 00.155-.016 4.832 4.832 0 011.58-.623 4.6 4.6 0 011.69.292.181.181 0 00.197-.3zm-14.097 1.532a3.277 3.277 0 00-2.369.79.3.3 0 00.292.49c.956-.254 2.433-1.122 3.38-.333a.182.182 0 00.3-.173c-.165-.687-1.026-.758-1.603-.774zm8.063 10.306a.916.916 0 01.142-.664c.167-.33.354-.649.56-.955.274-.47.685-.845 1.178-1.074a1.145 1.145 0 011.413.426 1.518 1.518 0 01-.245 1.445c-.386.608-2.606 2.259-3.048.822z" fill="#18216D"/><path d="M89.228 39.291a6.768 6.768 0 01-3.332-.98c-.632-.457-2.275-1.895-2.148-2.755.04-.253-.308-.459-.45-.19-.577 1.09.845 2.559 1.58 3.277 1.184 1.193 2.755 1.525 4.366 1.738.687.087.687-1.035-.016-1.09zm-12.264-.963a6.112 6.112 0 01-2.148-.79c-.577-.387-2.038-1.509-1.43-2.275.158-.197-.102-.481-.284-.284-.79.86.087 1.943.734 2.598.79.79 2.054 1.682 3.16 1.17a.253.253 0 00-.032-.42zm-8.355.45a10.73 10.73 0 00-1.754-.19c-.395-.07-2.219-.545-1.737-1.224.158-.237-.213-.53-.403-.308-1.35 1.58 2.86 2.962 3.949 2.156a.245.245 0 00-.055-.434z" fill="#fff"/><path d="M149.777 16.223H43.163v87.66h106.614v-87.66z" stroke="#18216D" stroke-miterlimit="10"/><path d="M66.026 111.464c-5.75-.671-11.585-1.579-17.271-.497.442-9.003 1.698-18.085 5.22-26.377 3.522-8.292 9.477-15.795 17.571-19.743 10.109-4.991 22.381-4.991 33.035-1.84 10.455 3.103 20.24 11.103 27.687 18.866a78.188 78.188 0 0110.354 13.465 16.198 16.198 0 011.8 3.728 9.034 9.034 0 01-1.026 7.289c-4.47 7.06-15.06 4.849-21.915 5.528a249.096 249.096 0 01-18.48 1.208 252.5 252.5 0 01-36.975-1.627z" fill="#18216D"/><path d="M67.51 78.493c.79-3.096 1.51-6.483.79-9.295-.734-2.993-3.159-5.6-4.454-8.395-1.145-2.535-1.745-5.528-.742-8.087.056-.169.141-.327.253-.465a1.237 1.237 0 011.808.268c.361.593.605 1.25.719 1.935.537 1.895 1.824 3.467 3.088 4.975 2.882 3.46 6.562 5.733 7.281 10.488.466 3.072.182 6.254.482 9.358.355 3.625.94 7.218 1.28 10.843.347 3.783 1.452 15.218-2.986 17.074-2.788 1.169-9.635.229-11.799-2.006a7.101 7.101 0 01-1.737-5.173c.143-1.864.55-3.699 1.208-5.449 1.366-4.201 2.867-8.379 3.949-12.675.237-1.058.553-2.203.86-3.396z" fill="#fff" stroke="#18216D" stroke-miterlimit="10"/><path d="M117.129 94.659a.477.477 0 00-.379-.41.48.48 0 00-.197 0c-1.832-1.888-3.775-4.005-6.002-5.347-.19-.119-.49.134-.332.331a30.341 30.341 0 002.898 2.978 247.57 247.57 0 013.207 3.253c.276.293.924.095.868-.355-.023-.15-.039-.3-.063-.45z" fill="#fff"/><path d="M123.716 93.103c-6.705 1.169-13.52 3.578-19.499 5.78a23.69 23.69 0 01-4.667 1.399c-1.728.16-3.466.179-5.196.055-4.612-.071-9.525 1.035-12.754 4.336-1.138 1.168-1.454 4.082.41 4.833 1.864.75 4.817-.577 6.942-.324 2.146.278 4.317.299 6.468.063a196.434 196.434 0 0119.893-1.106c7.739-.047 15.526.356 23.171-.845a10.96 10.96 0 004.154-1.303c3.158-1.958 3.948-6.823 1.484-9.476-2.772-2.986-8.031-4.012-11.901-4.107a43.72 43.72 0 00-8.505.695z" fill="#fff" stroke="#18216D" stroke-miterlimit="10"/><path d="M149.777 16.223H43.163v87.66h106.614v-87.66z" stroke="#18216D" stroke-miterlimit="10"/><path d="M47.546 11.303h97.863a4.74 4.74 0 014.739 4.738v5.94H42.784v-5.916a4.74 4.74 0 014.762-4.762z" fill="#18216D"/><path d="M49.481 20.116a2.922 2.922 0 100-5.844 2.922 2.922 0 000 5.844zm13.686-3.056a2.915 2.915 0 11-3.04-2.788 2.922 2.922 0 013.04 2.788z" fill="#fff"/><path d="M63.167 17.06a2.914 2.914 0 11-3.04-2.788 2.922 2.922 0 013.04 2.788z" fill="#fff"/><path d="M56.857 13.64l6.792 7.108M56.7 20.59l7.107-6.8" stroke="#18216D" stroke-miterlimit="10"/><path d="M145.828 142.185H22.63v87.659h123.198v-87.659z" fill="#fff" stroke="#18216D" stroke-miterlimit="10"/><path d="M105.22 187.72c4.952 2.212 11.001 2.141 17.303-1.848 14.523-9.192 10.337-40.276-13.773-34.179-22.563 5.733-17.406 29.836-3.53 36.027z" fill="#005FEC"/><path d="M126.866 168.633c-2.519.845-4.912 1.998-7.462 2.779a58.921 58.921 0 01-7.108 1.675c.111-3.159.253-6.342.426-9.548.182-3.309.79-6.831.482-10.132 0-.214-.339-.285-.395-.056-.789 3.112-.742 6.603-.955 9.793a445.516 445.516 0 00-.569 10.535.496.496 0 00.624.482c5.102-.79 10.835-2.014 15.313-4.683.434-.261.158-1.019-.356-.845zm-13.472 18.993a1.168 1.168 0 01.103-.79c.118-.221-.127-.521-.356-.363a1.297 1.297 0 00-.592 1.089c0 .379.205.995.687.948a.288.288 0 00.268-.213c.119-.221-.063-.427-.11-.671zm-16.111-17.809c-.245-.481-.545-.142-.86 0a4.6 4.6 0 01-1.193.119c-.442.039-.885.094-1.327.173-.276.056-.292.537 0 .577a10.2 10.2 0 002.504.142c.442-.071 1.16-.458.876-1.011zm16.34-18.558a.302.302 0 00-.348-.048 1.055 1.055 0 00-.402 1.295.468.468 0 00.331.332.514.514 0 00.408-.091.491.491 0 00.2-.367 1.265 1.265 0 00-.189-1.121zm-15.495 8.118a8.45 8.45 0 00-1.153-.276c-.284-.056-.505.339-.213.497.333.175.676.33 1.027.466.284.103.64.284.916.071a.245.245 0 00.102-.253c-.079-.323-.394-.402-.679-.505zm4.604-3.088a9.736 9.736 0 00-.789-.624c-.293-.213-.427-.442-.672-.616a.267.267 0 00-.297.019.27.27 0 00-.098.281 2.564 2.564 0 001.58 1.382.269.269 0 00.351-.283.272.272 0 00-.075-.159zm-2.582 24.742a7.177 7.177 0 00-1.39 1.288c-.19.244.055.679.363.473a7.157 7.157 0 001.39-1.295c.198-.229-.071-.679-.363-.466zm4.786 3.673c-.166.284-.34.568-.514.853-.173.284-.308.45-.205.789a.338.338 0 00.403.229c.324-.087.403-.284.545-.576l.442-.893a.394.394 0 00-.431-.581.426.426 0 00-.138.065.397.397 0 00-.102.114zm16.655.726c-.158-.055-.418-.118-.442-.332a.325.325 0 00-.283-.302.326.326 0 00-.349.223.97.97 0 00.167.951.964.964 0 00.907.329c.482-.087.371-.727 0-.869zm-18.977 52.288c1.477 1.84 4.312 1.532 6.594.964 2.283-.569 4.991-1.146 6.745.426a34.58 34.58 0 00-5.692-22.465 34.58 34.58 0 00-18.6-13.823c-6.318-1.943-12.17-1.193-18.614-.79-7.503.482-14.776 3.12-21.244 6.879-9.745 5.67-22.373 14.697-25.745 25.871" fill="#18216D"/><path d="M65.11 219.649a9.996 9.996 0 01-2.022-1.84 6.768 6.768 0 01-1.01-5.26c.404-1.792.983-3.54 1.729-5.22 3.688-9.658 2.985-20.256 6.586-30.009.64-1.722 1.343-3.949 2.511-5.378a20.146 20.146 0 014.194-3.325c5.6-3.791 13.512-6.46 19.111-1.193 3.017 2.843 3.657 7.384 3.554 11.53a46.975 46.975 0 01-3.514 16.814 9.597 9.597 0 01-5.647 5.346c-2.227.79-3.214.553-4.24 2.709a17.255 17.255 0 00-1.2 8.766 18.95 18.95 0 01.45 3.949c-.633 7.241-9.059 7.415-14.405 6.128a19.896 19.896 0 01-6.097-3.017zm54.128-25.745a8.967 8.967 0 012.069-2.922 29.307 29.307 0 015.899-3.893.955.955 0 01.735-.158.623.623 0 01.323.734c-.084.28-.236.535-.442.742l-1.445 1.722c-1.722 2.053 2.282.79 2.922.545a15.458 15.458 0 004.912-2.898c.495-.46 1.023-.882 1.58-1.264a3.597 3.597 0 012.463-.584 2.884 2.884 0 012.18 2.645c.134 2.733-2.274 5.75-4.233 7.108a20.745 20.745 0 01-7.234 3.206 1.278 1.278 0 00-.971.908l-6.926 25.066a72.441 72.441 0 01-2.567 7.787c-1.129 2.843-2.732 5.647-5.851 6.571a6.75 6.75 0 01-6.358-1.477c-5.449-4.92.371-14.871 2.409-20.067a292.47 292.47 0 016.152-14.429 290.282 290.282 0 013.38-7.107c.363-.798.663-1.548 1.003-2.235z" fill="#fff" stroke="#18216D" stroke-miterlimit="10"/><path d="M67.51 169.075a31.784 31.784 0 012.615-2.543c-1.509-1.035-2.922-2.78-2.37-4.525a3.948 3.948 0 011.738-2.006 8.697 8.697 0 016.87-1.114 13.035 13.035 0 015.457 3.309c.218.239.488.423.79.537.238.044.481.044.719 0l7.439-.718a27.173 27.173 0 015.828-.135c3.017.364 6.279 1.896 6.555 5.236.276 3.341-2.164 6.318-5.054 7.748-3.088 1.484-6.634 1.579-10.053 1.619-3.42.039-6.958.079-10.085 1.476a5.894 5.894 0 00-3.215 2.914c-.323.79-.45 1.864-1.24 2.259-1.208.616-1.35.703-1.816 2.022a63.979 63.979 0 01-1.808 4.541c-.656 1.492-2.646 4.738-4.66 3.095-1.5-1.216-1.342-6.317-1.43-8.142-.22-4.217-.086-9.879 2.212-13.583.445-.706.95-1.372 1.509-1.99zm24.23 23.992a1.774 1.774 0 01-1.47-.063c-.323-.143-.79.173-.529.537a1.945 1.945 0 002.59.545c.672-.387.088-1.327-.591-1.019zm-5.07-9.382c-.664-.419-2.133.663-.853 1.232.52.229 1.295-.3 1.105-.893a.575.575 0 00-.253-.339zm11.008-.292a.842.842 0 00-1.042 0 .623.623 0 00-.063.789c.023.095.06.185.11.269a.471.471 0 00.624.166 1.111 1.111 0 00.584-.703.482.482 0 00-.213-.521zm-4.588 1.129c-.095-.284-.6-.363-.656 0a22.68 22.68 0 01-.6 2.985c-.181.656-.56 1.524-.15 2.156.332.506 1.28.19 1.035-.434-.245-.624.324-1.935.442-2.614a4.266 4.266 0 00-.071-2.093z" fill="#18216D"/><path d="M70.63 183.558a3.447 3.447 0 00-1.627.616 3.89 3.89 0 00-1.43 1.343 4.455 4.455 0 00.143 4.944 3.161 3.161 0 004.336.608c2.677-1.903 3-7.953-1.422-7.511z" fill="#fff"/><path d="M71.278 186.18a1.724 1.724 0 00-1.304.79 1.504 1.504 0 00-.165 1.58.341.341 0 00.45.15c.213-.111.166-.411.181-.616a1.373 1.373 0 01.916-1.28c.316-.126.269-.663-.078-.624zm3.648 11.957c-1.65-1.145-3.743-3.641-3.57-5.939l-.22-.063a10.256 10.256 0 01-2.077-.727c.094.048 0 3.491.07 3.87a20.86 20.86 0 00.861 4.036c.506 1.579 1.77 6.183 4.25 4.738 1.2-.695 2.368-1.422 3.545-2.164.624-.395 1.232-.79 1.856-1.192l.205-.119a22.886 22.886 0 01-4.92-2.44zm51.056-7.25a.236.236 0 00-.279-.128.236.236 0 00-.171.255 4.232 4.232 0 01-.79 3.158c-.189.277.213.545.442.34a3.3 3.3 0 00.798-3.625zm2.085 4.936a4.74 4.74 0 00-3.064.308 3.565 3.565 0 00-1.895 1.651.212.212 0 00.235.287.215.215 0 00.128-.074 3.677 3.677 0 012.322-1.406 10.16 10.16 0 002.321-.395c.174-.087.103-.308-.047-.371z" fill="#18216D"/><path d="M145.828 142.185H22.63v87.659h123.198v-87.659z" stroke="#18216D" stroke-miterlimit="10"/><path d="M27.013 134.501h114.448a4.74 4.74 0 014.738 4.738v5.939H22.251v-5.939a4.743 4.743 0 012.942-4.385 4.735 4.735 0 011.82-.353z" fill="#18216D"/><path d="M28.948 143.314a2.922 2.922 0 100-5.844 2.922 2.922 0 000 5.844zm13.686-3.056a2.912 2.912 0 01-3.356 3.003 2.917 2.917 0 01-2.294-3.876 2.917 2.917 0 012.61-1.915 2.92 2.92 0 013.04 2.788z" fill="#fff"/><path d="M42.634 140.258a2.912 2.912 0 01-3.356 3.003 2.917 2.917 0 01-2.294-3.876 2.917 2.917 0 012.61-1.915 2.92 2.92 0 013.04 2.788z" fill="#fff"/><path d="M36.325 136.838l6.791 7.108m-6.95-.158l7.108-6.8m90.4-6.681l9.635-11.877 3.791 11.877 8.331-12.272 3.909 12.272 8.19-12.075 3.854 12.075 7.858-11.577" stroke="#18216D" stroke-miterlimit="10"/><path d="M1 222.705l9.635-11.877 3.79 11.877 8.332-12.272 3.91 12.272 8.197-12.075 3.846 12.075" stroke="#00ECD0" stroke-width="2" stroke-miterlimit="10"/><path d="M59.36 277.268a3.942 3.942 0 012.718-2.507 3.945 3.945 0 013.6.84l.246.206a3.949 3.949 0 006.38-1.967l1.256-4.801a3.947 3.947 0 014.613-2.842 3.955 3.955 0 011.768.867l.15.135a3.949 3.949 0 006.381-1.967l1.185-4.525a3.947 3.947 0 016.38-1.974 3.961 3.961 0 001.767.868 3.959 3.959 0 003.643-1.123 3.95 3.95 0 00.972-1.712M126.788 1.25a3.947 3.947 0 015.33 3.735v.324a3.95 3.95 0 005.615 3.61l4.486-2.141a3.948 3.948 0 015.615 3.609v.213a3.95 3.95 0 005.615 3.61l4.225-2.015a3.947 3.947 0 015.147 1.698 3.95 3.95 0 01.476 1.912v0a3.954 3.954 0 003.675 3.965 3.95 3.95 0 001.932-.356" stroke="#18216D" stroke-miterlimit="10"/><path d="M169.694 190.011a14.21 14.21 0 01-3.388-10.341 14.212 14.212 0 014.916-9.707 14.218 14.218 0 0120.047 1.528" stroke="#00ECD0" stroke-width="2" stroke-miterlimit="10"/><path d="M287.189 23.33a7.503 7.503 0 100-15.004 7.503 7.503 0 000 15.005z" fill="#005FEC"/><path d="M308.173 218.844a16.91 16.91 0 0111.958 4.955 16.908 16.908 0 014.95 11.96" fill="#fff"/><path d="M308.173 218.844a16.91 16.91 0 0111.958 4.955 16.908 16.908 0 014.95 11.96M318.384 2.798L294.692 26.49" stroke="#18216D" stroke-miterlimit="10"/><path fill="#fff" d="M43.337 104.27h102.665v13.425H43.337zM24.384 230.231h97.926v16.584H24.384zm154.786-95.557h128.726v24.482H179.17z"/><path d="M287.987 151.661l14.397-11.869 3.783 11.869 12.675-12.264 3.909 12.264 12.47-12.067 3.846 12.067 11.956-11.577" stroke="#00ECD0" stroke-width="2" stroke-miterlimit="10"/><path d="M222.432 147.713l-23.692 23.692m17.374-12.636l-23.692 23.692" stroke="#18216D" stroke-miterlimit="10"/></svg>