<svg width="114" height="32" fill="none" xmlns="http://www.w3.org/2000/svg"><path fill-rule="evenodd" clip-rule="evenodd" d="M0 4.571A4.571 4.571 0 014.571 0H27.43A4.571 4.571 0 0132 4.571V27.43A4.571 4.571 0 0127.429 32H4.57A4.571 4.571 0 010 27.429V4.57zm5.024 2.84v17.732h4.71v-10.32h.138l3.948 10.181h2.84l3.948-10.112h.139v10.25h4.71V7.413h-5.992l-4.12 10.043h-.209L11.016 7.41H5.023zm10.214 1.732a3.048 3.048 0 100-6.095 3.048 3.048 0 000 6.095z" fill="#005FEC"/><path d="M40.37 23h2.57v-6.634c0-1.342.896-2.25 2.004-2.25 1.086 0 1.832.73 1.832 1.853V23h2.521v-6.804c0-1.229.732-2.08 1.975-2.08 1.037 0 1.86.61 1.86 1.96V23h2.579v-7.322c0-2.437-1.407-3.73-3.41-3.73-1.583 0-2.79.782-3.273 1.997h-.114c-.42-1.236-1.477-1.996-2.948-1.996-1.463 0-2.556.753-3.01 1.996h-.129V12.09H40.37V23zm22.779.213c2.542 0 4.29-1.243 4.744-3.14l-2.4-.269c-.349.923-1.2 1.406-2.309 1.406-1.662 0-2.763-1.094-2.784-2.961H68v-.789c0-3.828-2.302-5.511-4.986-5.511-3.125 0-5.164 2.294-5.164 5.66 0 3.424 2.01 5.604 5.299 5.604zm-2.742-6.697c.078-1.392 1.108-2.564 2.642-2.564 1.477 0 2.472 1.08 2.486 2.564h-5.128zm15.215-4.425H73.47V9.477h-2.571v2.614h-1.548v1.989h1.548v6.065c-.014 2.052 1.477 3.061 3.41 3.004a5.168 5.168 0 001.512-.256l-.433-2.01a3.18 3.18 0 01-.753.1c-.647 0-1.165-.227-1.165-1.264v-5.64h2.152v-1.988zm7.598 0h-2.152V9.477h-2.571v2.614h-1.549v1.989h1.549v6.065c-.015 2.052 1.477 3.061 3.409 3.004a5.169 5.169 0 001.512-.256l-.433-2.01c-.142.036-.433.1-.753.1-.646 0-1.164-.227-1.164-1.264v-5.64h2.152v-1.988zM85.37 23h2.57V12.09h-2.57V23zm1.292-12.457c.817 0 1.485-.625 1.485-1.392 0-.775-.668-1.4-1.485-1.4-.823 0-1.491.625-1.491 1.4 0 .767.668 1.392 1.491 1.392zm6.494 6.065c0-1.577.951-2.486 2.308-2.486 1.328 0 2.124.874 2.124 2.33V23h2.571v-6.946c.007-2.614-1.485-4.105-3.736-4.105-1.634 0-2.756.781-3.253 1.996h-.128V12.09h-2.457V23h2.57v-6.392zm14.361 10.71c2.947 0 5.12-1.35 5.12-4.14V12.09h-2.535v1.804h-.142c-.391-.788-1.208-1.946-3.132-1.946-2.522 0-4.503 1.974-4.503 5.56 0 3.56 1.981 5.335 4.495 5.335 1.868 0 2.742-1.002 3.14-1.804h.128v2.067c0 1.605-1.066 2.265-2.529 2.265-1.548 0-2.23-.731-2.542-1.37l-2.316.56c.469 1.527 2.039 2.756 4.816 2.756zm.021-6.491c-1.698 0-2.593-1.321-2.593-3.331 0-1.982.881-3.438 2.593-3.438 1.655 0 2.564 1.371 2.564 3.438 0 2.08-.924 3.33-2.564 3.33z" fill="#18216D"/></svg>